:FULLY-SPECIFIED
:FORCE-ALL-JOINTS-BE-3DOF
:DEGREES
883
root 3.8768 16.4585 30.5982 -10.1094 22.0907 -0.386189
lfemur -19.3886 18.8438 -20.828
ltibia 45.1706 -0 0
lfoot -12.2895 -11.7672 -0.54466
ltoes 15.9504 -0 0
rfemur -57.7749 -18.3407 22.6727
rtibia 62.3028 -0 0
rfoot 4.05487 1.12441 -0.929354
rtoes 0.338295 -0 0
lowerback 12.2913 -2.60158 -6.02223
upperback 3.71163 -4.22856 -1.8515
thorax -2.77851 -2.0714 1.84174
lowerneck -7.49022 -4.72885 0.520827
upperneck 5.01451 -6.69138 4.57869
head 3.10853 -3.14052 1.06394
lclavicle -1.97542e-014 -3.97569e-015 0
lhumerus -37.8891 -34.941 91.0494
lradius 62.7848 -0 0
lwrist 18.8145 0 0
lhand 20.1559 8.87154 0.257796
lfingers 7.12502 -0 0
lthumb 44.6469 32.2852 0.173365
rclavicle -1.97542e-014 -3.97569e-015 0
rhumerus -47.9476 -10.5344 -63.3151
rradius 79.0524 -0 0
rwrist -0.601165 0 0
rhand 6.90053 -19.9918 0.109842
rfingers 7.12502 -0 0
rthumb 32.2092 -47.4525 0.0353195
884
root 3.8652 16.4548 30.6593 -9.6297 22.5157 -0.498342
lfemur -20.173 19.657 -20.8351
ltibia 45.7951 -0 0
lfoot -12.4695 -10.6362 -0.558092
ltoes 15.5451 -0 0
rfemur -56.0297 -18.4234 21.3586
rtibia 64.654 -0 0
rfoot 4.60004 -0.347444 -0.936973
rtoes 3.37596 -0 0
lowerback 11.8403 -2.67762 -5.91027
upperback 3.53144 -4.29174 -1.79481
thorax -2.71614 -2.10129 1.83202
lowerneck -7.47001 -4.91053 0.338899
upperneck 5.01065 -6.9179 4.607
head 3.11721 -3.25582 1.09332
lclavicle -1.97542e-014 -3.97569e-015 0
lhumerus -38.6059 -35.4348 92.2507
lradius 62.7703 -0 0
lwrist 18.2731 0 0
lhand 20.7852 9.29584 0.254698
lfingers 7.12502 -0 0
lthumb 45.232 32.4797 0.172682
rclavicle -1.97542e-014 -3.97569e-015 0
rhumerus -47.5666 -10.0533 -65.3315
rradius 81.4949 -0 0
rwrist -1.0646 0 0
rhand 6.95289 -19.3169 0.1033
rfingers 7.12502 -0 0
rthumb 32.2588 -46.7624 0.0287549
885
root 3.85361 16.451 30.7203 -9.13745 22.9202 -0.604436
lfemur -20.955 20.4546 -20.8358
ltibia 46.397 -0 0
lfoot -12.6511 -9.5062 -0.566097
ltoes 15.1143 -0 0
rfemur -54.2339 -18.4638 20.0144
rtibia 67.0005 -0 0
rfoot 5.14342 -1.82165 -0.929399
rtoes 6.38231 -0 0
lowerback 11.3739 -2.74854 -5.79089
upperback 3.34618 -4.3473 -1.73875
thorax -2.65064 -2.12766 1.81721
lowerneck -7.44841 -5.08966 0.158606
upperneck 5.00739 -7.1412 4.63375
head 3.12574 -3.36953 1.12202
lclavicle -1.97542e-014 -3.97569e-015 0
lhumerus -39.3575 -35.904 93.4753
lradius 62.7477 -0 0
lwrist 17.7321 0 0
lhand 21.4133 9.72781 0.248639
lfingers 7.12502 -0 0
lthumb 45.8155 32.6776 0.169977
rclavicle -1.97542e-014 -3.97569e-015 0
rhumerus -47.1912 -9.51041 -67.3501
rradius 83.9381 -0 0
rwrist -1.53204 0 0
rhand 6.9948 -18.6384 0.0969018
rfingers 7.12502 -0 0
rthumb 32.2982 -46.0678 0.0229894
886
root 3.84201 16.4473 30.7814 -8.63504 23.3016 -0.70289
lfemur -21.726 21.232 -20.8283
ltibia 46.97 -0 0
lfoot -12.8351 -8.38664 -0.568449
ltoes 14.6595 -0 0
rfemur -52.4032 -18.4592 18.6495
rtibia 69.3255 -0 0
rfoot 5.67969 -3.28885 -0.906879
rtoes 9.3361 -0 0
lowerback 10.8953 -2.81421 -5.66535
upperback 3.15714 -4.39552 -1.68445
thorax -2.58243 -2.15069 1.79688
lowerneck -7.42567 -5.2648 -0.0189314
upperneck 5.00439 -7.35947 4.65905
head 3.13397 -3.48072 1.14997
lclavicle -1.97542e-014 -3.97569e-015 0
lhumerus -40.1382 -36.3477 94.7155
lradius 62.7177 -0 0
lwrist 17.1957 0 0
lhand 22.0391 10.1662 0.239768
lfingers 7.12502 -0 0
lthumb 46.3963 32.8779 0.165319
rclavicle -1.97542e-014 -3.97569e-015 0
rhumerus -46.8283 -8.90748 -69.3531
rradius 86.3681 -0 0
rwrist -2.00168 0 0
rhand 7.02961 -17.9601 0.0908494
rfingers 7.12502 -0 0
rthumb 32.3305 -45.3722 0.0182074
